<?xml version="1.0" encoding="UTF-8" standalone="no"?>
<!-- Created with Inkscape (http://www.inkscape.org/) -->

<svg
   xmlns:dc="http://purl.org/dc/elements/1.1/"
   xmlns:cc="http://creativecommons.org/ns#"
   xmlns:rdf="http://www.w3.org/1999/02/22-rdf-syntax-ns#"
   xmlns:svg="http://www.w3.org/2000/svg"
   xmlns="http://www.w3.org/2000/svg"
   xmlns:sodipodi="http://sodipodi.sourceforge.net/DTD/sodipodi-0.dtd"
   xmlns:inkscape="http://www.inkscape.org/namespaces/inkscape"
   version="1.1"
   id="svg815"
   xml:space="preserve"
   width="318.81812"
   height="108.15788"
   viewBox="0 0 318.81812 108.15787"
   sodipodi:docname="sensor-circuit.svg"
   inkscape:version="0.92.2 (5c3e80d, 2017-08-06)"><metadata
     id="metadata821"><rdf:RDF><cc:Work
         rdf:about=""><dc:format>image/svg+xml</dc:format><dc:type
           rdf:resource="http://purl.org/dc/dcmitype/StillImage" /><dc:title></dc:title></cc:Work></rdf:RDF></metadata><defs
     id="defs819"><clipPath
       clipPathUnits="userSpaceOnUse"
       id="clipPath835"><path
         d="M 0,842.04 H 595.2 V 0 H 0 Z"
         id="path833"
         inkscape:connector-curvature="0" /></clipPath><clipPath
       clipPathUnits="userSpaceOnUse"
       id="clipPath1599"><path
         d="M 280.609,178.637 H 42.492 V 94.686 h 238.117 z"
         id="path1597"
         inkscape:connector-curvature="0" /></clipPath></defs><sodipodi:namedview
     pagecolor="#ffffff"
     bordercolor="#666666"
     borderopacity="1"
     objecttolerance="10"
     gridtolerance="10"
     guidetolerance="10"
     inkscape:pageopacity="0"
     inkscape:pageshadow="2"
     inkscape:window-width="1920"
     inkscape:window-height="1017"
     id="namedview817"
     showgrid="false"
     inkscape:zoom="1.0682183"
     inkscape:cx="60.445476"
     inkscape:cy="36.290626"
     inkscape:window-x="-8"
     inkscape:window-y="-8"
     inkscape:window-maximized="1"
     inkscape:current-layer="g823"
     fit-margin-top="0"
     fit-margin-left="0"
     fit-margin-right="0"
     fit-margin-bottom="0" /><g
     id="g823"
     inkscape:groupmode="layer"
     inkscape:label="Panasonic-GX-F12A-P-datasheet"
     transform="matrix(1.3333333,0,0,-1.3333333,-29.516742,1102.9748)"><text
       transform="scale(1,-1)"
       style="font-variant:normal;font-weight:normal;font-size:6px;font-family:Arial;-inkscape-font-specification:ArialMT;writing-mode:lr-tb;fill:#231f20;fill-opacity:1;fill-rule:nonzero;stroke:none"
       id="text1409"
       x="62.598362"
       y="-761.80438"><tspan
         x="62.598362"
         y="-761.80438"
         id="tspan1403">D</tspan><tspan
         x="51.673557 55.116962"
         y="-790.31342"
         sodipodi:role="line"
         id="tspan1405">Tr</tspan><tspan
         x="79.379753"
         y="-790.94037"
         id="tspan1407">Z</tspan></text>
<text
       transform="scale(1,-1)"
       style="font-variant:normal;font-weight:normal;font-size:4px;font-family:Arial;-inkscape-font-specification:ArialMT;writing-mode:lr-tb;fill:#231f20;fill-opacity:1;fill-rule:nonzero;stroke:none"
       id="text1413"
       x="83.044647"
       y="-790.94019"><tspan
         x="83.044647"
         y="-790.94019"
         id="tspan1411">D</tspan></text>
<text
       transform="scale(1,-1)"
       style="font-variant:normal;font-weight:normal;font-size:6px;font-family:Arial;-inkscape-font-specification:ArialMT;writing-mode:lr-tb;fill:#231f20;fill-opacity:1;fill-rule:nonzero;stroke:none"
       id="text1417"
       x="124.11745"
       y="-788.60126"><tspan
         x="124.11745 127.45346 130.78946 134.12546 135.79346 140.79146 144.46286 147.79886 152.79686 156.13286 159.13286"
         y="-788.60126"
         sodipodi:role="line"
         id="tspan1415">100 mA max.</tspan></text>
<path
       d="m 108.80856,818.68071 2.67,2.514 h 30.869"
       style="fill:none;stroke:#231f20;stroke-width:0.30000001;stroke-linecap:butt;stroke-linejoin:miter;stroke-miterlimit:4;stroke-dasharray:none;stroke-opacity:1"
       id="path1419"
       inkscape:connector-curvature="0" /><path
       d="m 107.05856,816.67871 2.804,1.667 -1.503,1.324 -1.301,-2.991"
       style="fill:#231f20;fill-opacity:1;fill-rule:nonzero;stroke:none"
       id="path1421"
       inkscape:connector-curvature="0" /><text
       transform="scale(1,-1)"
       style="font-variant:normal;font-weight:normal;font-size:6px;font-family:Arial;-inkscape-font-specification:ArialMT;writing-mode:lr-tb;fill:#231f20;fill-opacity:1;fill-rule:nonzero;stroke:none"
       id="text1433"
       x="113.25615"
       y="-822.86298"><tspan
         x="113.25615 117.58815 120.92415 122.25615 125.59215 127.59015 129.25815 132.25815 135.59415 138.93016"
         y="-822.86298"
         sodipodi:role="line"
         id="tspan1423">Color code</tspan><tspan
         x="107.41275 111.74475 114.74475 118.08075 120.07875 123.07875 124.18816 125.85616 128.85616 130.18816 132.18616 135.18616 138.52216 139.85416 50.062962 51.730961 55.066959 56.734959 60.070957 62.068958 65.404953 68.740952 70.072952 71.740952 74.740952 76.072952 78.070953 81.070953 84.406952 85.738953"
         y="-746.18597"
         sodipodi:role="line"
         id="tspan1425">Users’ circuitInternal circuit</tspan><tspan
         x="98.900558 100.89856 104.90056 106.23256 109.56856 112.56856 115.56856 117.56656 119.23456 123.90256 127.23856 128.90656 132.24255 135.57855"
         y="-776.5766"
         sodipodi:role="line"
         id="tspan1427">(Black) Output</tspan><tspan
         x="98.900558 100.89856 105.23056 108.56656 110.23456 113.57056"
         y="-770.5766"
         sodipodi:role="line"
         id="tspan1429">(Note)</tspan><tspan
         x="99.567154 101.56516 105.56715 106.89915 110.23515 113.57115 115.56915 117.23715 120.57315 122.24115"
         y="-761.00061"
         sodipodi:role="line"
         id="tspan1431">(Blue) 0 V</tspan></text>
<path
       d="m 97.221558,753.18671 v -5.338"
       style="fill:none;stroke:#231f20;stroke-width:0.30000001;stroke-linecap:butt;stroke-linejoin:miter;stroke-miterlimit:4;stroke-dasharray:0.8, 0.8;stroke-dashoffset:0;stroke-opacity:1"
       id="path1435"
       inkscape:connector-curvature="0" /><path
       d="M 89.164558,748.02571 H 105.18956"
       style="fill:none;stroke:#231f20;stroke-width:0.30000001;stroke-linecap:butt;stroke-linejoin:miter;stroke-miterlimit:4;stroke-dasharray:none;stroke-opacity:1"
       id="path1437"
       inkscape:connector-curvature="0" /><path
       d="m 105.81556,748.02571 -2.185,0.707 v -1.41 l 2.185,0.703"
       style="fill:#231f20;fill-opacity:1;fill-rule:nonzero;stroke:none"
       id="path1439"
       inkscape:connector-curvature="0" /><path
       d="m 88.717558,748.02571 2.185,0.707 v -1.41 l -2.185,0.703"
       style="fill:#231f20;fill-opacity:1;fill-rule:nonzero;stroke:none"
       id="path1441"
       inkscape:connector-curvature="0" /><path
       d="m 97.215558,747.12271 c 0.507,0 0.918,0.413 0.918,0.916 0,0.511 -0.411,0.919 -0.918,0.919 -0.506,0 -0.918,-0.408 -0.918,-0.919 0,-0.503 0.412,-0.916 0.918,-0.916"
       style="fill:#ffffff;fill-opacity:1;fill-rule:nonzero;stroke:none"
       id="path1443"
       inkscape:connector-curvature="0" /><path
       d="m 97.215558,747.12271 c 0.507,0 0.918,0.413 0.918,0.916 0,0.511 -0.411,0.919 -0.918,0.919 -0.506,0 -0.918,-0.408 -0.918,-0.919 0,-0.503 0.412,-0.916 0.918,-0.916 z"
       style="fill:none;stroke:#231f20;stroke-width:0.345;stroke-linecap:butt;stroke-linejoin:miter;stroke-miterlimit:4;stroke-dasharray:none;stroke-opacity:1"
       id="path1445"
       inkscape:connector-curvature="0" /><path
       d="m 25.373557,755.68071 h 6.794 v 54.74 h -6.794 z"
       style="fill:#e2e5e3;fill-opacity:1;fill-rule:nonzero;stroke:none"
       id="path1447"
       inkscape:connector-curvature="0" /><path
       d="m 25.373557,810.42071 h 6.794 v -54.74 h -6.794 z m 135.286003,-51.979 v 25.604"
       style="fill:none;stroke:#231f20;stroke-width:0.30000001;stroke-linecap:butt;stroke-linejoin:miter;stroke-miterlimit:4;stroke-dasharray:none;stroke-opacity:1"
       id="path1449"
       inkscape:connector-curvature="0" /><path
       d="m 152.75156,767.68271 h 16.15 v 8.5195 h -16.15 z"
       style="fill:#e2e5e3;fill-opacity:1;fill-rule:nonzero;stroke:none"
       id="path1451"
       inkscape:connector-curvature="0" /><path
       d="m 152.75156,776.20171 h 16.15 v -8.5195 h -16.15 z m 16.15,0 z"
       style="fill:none;stroke:#231f20;stroke-width:0.5;stroke-linecap:butt;stroke-linejoin:miter;stroke-miterlimit:4;stroke-dasharray:none;stroke-opacity:1"
       id="path1453"
       inkscape:connector-curvature="0" /><text
       transform="scale(1,-1)"
       style="font-variant:normal;font-weight:normal;font-size:6px;font-family:Arial;-inkscape-font-specification:ArialMT;writing-mode:lr-tb;fill:#231f20;fill-opacity:1;fill-rule:nonzero;stroke:none"
       id="text1457"
       x="154.04146"
       y="-769.65698"><tspan
         x="154.04146 157.37746 160.71346 164.04945"
         y="-769.65698"
         sodipodi:role="line"
         id="tspan1455">Load</tspan></text>
<path
       d="m 22.387557,812.91471 h 74.834001 v -59.731 H 22.387557 Z"
       style="fill:none;stroke:#231f20;stroke-width:0.5;stroke-linecap:butt;stroke-linejoin:miter;stroke-miterlimit:4;stroke-dasharray:none;stroke-opacity:1"
       id="path1459"
       inkscape:connector-curvature="0" /><path
       d="M 32.167557,807.99671 H 218.37656 v -0.14 m 0,-49.611 v 49.751"
       style="fill:none;stroke:#231f20;stroke-width:0.30000001;stroke-linecap:butt;stroke-linejoin:miter;stroke-miterlimit:4;stroke-dasharray:none;stroke-opacity:1"
       id="path1461"
       inkscape:connector-curvature="0" /><path
       d="m 161.53256,758.40971 c 0,-0.481 -0.393,-0.874 -0.873,-0.874 -0.48,0 -0.873,0.393 -0.873,0.874 0,0.484 0.393,0.872 0.873,0.872 0.48,0 0.873,-0.388 0.873,-0.872"
       style="fill:#231f20;fill-opacity:1;fill-rule:nonzero;stroke:none"
       id="path1463"
       inkscape:connector-curvature="0" /><path
       d="m 65.672558,758.14371 -2.735,-1.58 v 3.159 l 2.735,-1.579"
       style="fill:#231f20;fill-opacity:1;fill-rule:nonzero;stroke:none"
       id="path1465"
       inkscape:connector-curvature="0" /><path
       d="m 65.676558,756.57671 h 0.77631 v 3.1582 h -0.77631 z"
       style="fill:#231f20;fill-opacity:1;fill-rule:nonzero;stroke:none"
       id="path1467"
       inkscape:connector-curvature="0" /><path
       d="m 217.58356,781.64971 h 1.562 v 2.5958 h -1.562 z"
       style="fill:#ffffff;fill-opacity:1;fill-rule:nonzero;stroke:none"
       id="path1469"
       inkscape:connector-curvature="0" /><path
       d="m 217.58356,784.24571 h 1.562 v -2.5958 h -1.562 z"
       style="fill:none;stroke:#ffffff;stroke-width:0.36000001;stroke-linecap:butt;stroke-linejoin:miter;stroke-miterlimit:4;stroke-dasharray:none;stroke-opacity:1"
       id="path1471"
       inkscape:connector-curvature="0" /><path
       d="m 215.23756,784.15271 h 6.268 v 0.20212 h -6.268 z"
       style="fill:#231f20;fill-opacity:1;fill-rule:nonzero;stroke:none"
       id="path1473"
       inkscape:connector-curvature="0" /><path
       d="m 215.23756,784.35471 h 6.268 v -0.20212 h -6.268 z"
       style="fill:none;stroke:#231f20;stroke-width:0.47999999;stroke-linecap:butt;stroke-linejoin:miter;stroke-miterlimit:4;stroke-dasharray:none;stroke-opacity:1"
       id="path1475"
       inkscape:connector-curvature="0" /><path
       d="m 217.01256,781.40071 h 2.762 v 0.20221 h -2.762 z"
       style="fill:#231f20;fill-opacity:1;fill-rule:nonzero;stroke:none"
       id="path1477"
       inkscape:connector-curvature="0" /><path
       d="m 217.01256,781.60371 h 2.762 v -0.20221 h -2.762 z"
       style="fill:none;stroke:#231f20;stroke-width:1.44000006;stroke-linecap:butt;stroke-linejoin:miter;stroke-miterlimit:4;stroke-dasharray:none;stroke-opacity:1"
       id="path1479"
       inkscape:connector-curvature="0" /><path
       d="M 32.167557,758.38271 H 218.37656 v -0.137"
       style="fill:none;stroke:#231f20;stroke-width:0.30000001;stroke-linecap:butt;stroke-linejoin:miter;stroke-miterlimit:4;stroke-dasharray:none;stroke-opacity:1"
       id="path1481"
       inkscape:connector-curvature="0" /><path
       d="m 88.116558,808.09071 c 0,-0.482 -0.391,-0.875 -0.873,-0.875 -0.481,0 -0.873,0.393 -0.873,0.875 0,0.481 0.392,0.872 0.873,0.872 0.482,0 0.873,-0.391 0.873,-0.872"
       style="fill:#231f20;fill-opacity:1;fill-rule:nonzero;stroke:none"
       id="path1483"
       inkscape:connector-curvature="0" /><path
       d="m 63.421558,808.02371 c 0,-0.483 -0.391,-0.873 -0.874,-0.873 -0.48,0 -0.872,0.39 -0.872,0.873 0,0.484 0.392,0.874 0.872,0.874 0.483,0 0.874,-0.39 0.874,-0.874"
       style="fill:#231f20;fill-opacity:1;fill-rule:nonzero;stroke:none"
       id="path1485"
       inkscape:connector-curvature="0" /><path
       d="m 88.116558,784.04871 c 0,-0.482 -0.39,-0.873 -0.873,-0.873 -0.482,0 -0.873,0.391 -0.873,0.873 0,0.48 0.391,0.874 0.873,0.874 0.483,0 0.873,-0.394 0.873,-0.874"
       style="fill:#231f20;fill-opacity:1;fill-rule:nonzero;stroke:none"
       id="path1487"
       inkscape:connector-curvature="0" /><path
       d="m 87.243558,783.66471 v 24.196"
       style="fill:none;stroke:#231f20;stroke-width:0.30000001;stroke-linecap:butt;stroke-linejoin:miter;stroke-miterlimit:4;stroke-dasharray:none;stroke-opacity:1"
       id="path1489"
       inkscape:connector-curvature="0" /><path
       d="m 87.248558,798.24271 1.578,-2.732 h -3.159 l 1.581,2.732"
       style="fill:#231f20;fill-opacity:1;fill-rule:nonzero;stroke:none"
       id="path1491"
       inkscape:connector-curvature="0" /><path
       d="m 88.610558,798.70471 0.943,0.943 0.316,-0.316 -1.09,-1.089 h -2.895 l -0.947,-0.949 -0.319,0.315 1.096,1.096 h 2.896"
       style="fill:#231f20;fill-opacity:1;fill-rule:nonzero;stroke:none"
       id="path1493"
       inkscape:connector-curvature="0" /><path
       d="m 88.610558,798.70471 0.943,0.943 0.316,-0.316 -1.09,-1.089 h -2.895 l -0.947,-0.949 -0.319,0.315 1.096,1.096 z"
       style="fill:none;stroke:#231f20;stroke-width:0.5;stroke-linecap:butt;stroke-linejoin:miter;stroke-miterlimit:4;stroke-dasharray:none;stroke-opacity:1"
       id="path1495"
       inkscape:connector-curvature="0" /><path
       d="M 58.123558,788.47171 H 32.167557"
       style="fill:none;stroke:#231f20;stroke-width:0.30000001;stroke-linecap:butt;stroke-linejoin:miter;stroke-miterlimit:4;stroke-dasharray:none;stroke-opacity:1"
       id="path1497"
       inkscape:connector-curvature="0" /><path
       d="m 58.732558,788.78971 2.315,1.366 -1.13,1.302 -1.185,-2.668"
       style="fill:#231f20;fill-opacity:1;fill-rule:nonzero;stroke:none"
       id="path1499"
       inkscape:connector-curvature="0" /><path
       d="m 62.636558,793.31371 -2.685,-3.114 m 2.476,-6.151 -3.086,3.937"
       style="fill:none;stroke:#231f20;stroke-width:1;stroke-linecap:butt;stroke-linejoin:miter;stroke-miterlimit:4;stroke-dasharray:none;stroke-opacity:1"
       id="path1501"
       inkscape:connector-curvature="0" /><path
       d="M 160.65956,784.04871 H 71.513558 m 89.287002,0 H 62.548558"
       style="fill:none;stroke:#231f20;stroke-width:0.30000001;stroke-linecap:butt;stroke-linejoin:miter;stroke-miterlimit:4;stroke-dasharray:none;stroke-opacity:1"
       id="path1503"
       inkscape:connector-curvature="0" /><path
       d="m 96.417558,806.12471 h 1.5967 v 3.1171 h -1.5967 z"
       style="fill:#ffffff;fill-opacity:1;fill-rule:nonzero;stroke:none"
       id="path1505"
       inkscape:connector-curvature="0" /><path
       d="m 96.540558,782.43971 h 1.4737 v 3.1172 h -1.4737 z"
       style="fill:#ffffff;fill-opacity:1;fill-rule:nonzero;stroke:none"
       id="path1507"
       inkscape:connector-curvature="0" /><path
       d="m 96.583558,756.75471 h 1.353 v 3.1172 h -1.353 z"
       style="fill:#ffffff;fill-opacity:1;fill-rule:nonzero;stroke:none"
       id="path1509"
       inkscape:connector-curvature="0" /><path
       d="m 65.906558,806.23571 c 0,0 -0.001,-7.455 -0.002,-18.418 l -10e-4,1.424 c 0,0 0,-0.032 0,-0.098 v -1.762 c 0,-0.69 0.558,-1.248 1.247,-1.248 h 63.810002 c 12.09,0.002 27.103,0.004 27.103,0.004 1.412,0 2.596,0 2.596,0"
       style="fill:none;stroke:#ffffff;stroke-width:0.80000001;stroke-linecap:butt;stroke-linejoin:round;stroke-miterlimit:4;stroke-dasharray:none;stroke-opacity:1"
       id="path1511"
       inkscape:connector-curvature="0" /><path
       d="m 65.906558,806.23571 c 0,0 -0.001,-7.457 -0.002,-18.418 l -10e-4,1.424 c 0,0 0,-0.032 0,-0.098 v -1.762 c 0,-0.69 0.558,-1.248 1.247,-1.248 h 63.810002 c 12.09,0.002 27.103,0.004 27.103,0.004 1.412,0 2.596,0 2.596,0"
       style="fill:none;stroke:#ed1c24;stroke-width:0.5;stroke-linecap:butt;stroke-linejoin:round;stroke-miterlimit:4;stroke-dasharray:none;stroke-opacity:1"
       id="path1513"
       inkscape:connector-curvature="0" /><path
       d="m 160.03656,787.28271 2.58,-1.001 -2.58,-1.003 v 2.004"
       style="fill:#ed1c24;fill-opacity:1;fill-rule:nonzero;stroke:none"
       id="path1515"
       inkscape:connector-curvature="0" /><path
       d="m 160.03656,787.28271 2.58,-1.001 -2.58,-1.003 z"
       style="fill:none;stroke:#ed1c24;stroke-width:0.16;stroke-linecap:butt;stroke-linejoin:round;stroke-miterlimit:4;stroke-dasharray:none;stroke-opacity:1"
       id="path1517"
       inkscape:connector-curvature="0" /><path
       d="m 97.215558,757.42971 c 0.507,0 0.918,0.412 0.918,0.917 0,0.507 -0.411,0.918 -0.918,0.918 -0.506,0 -0.918,-0.411 -0.918,-0.918 0,-0.505 0.412,-0.917 0.918,-0.917"
       style="fill:#ffffff;fill-opacity:1;fill-rule:nonzero;stroke:none"
       id="path1519"
       inkscape:connector-curvature="0" /><path
       d="m 97.215558,757.42971 c 0.507,0 0.918,0.412 0.918,0.917 0,0.507 -0.411,0.918 -0.918,0.918 -0.506,0 -0.918,-0.411 -0.918,-0.918 0,-0.505 0.412,-0.917 0.918,-0.917 z"
       style="fill:none;stroke:#231f20;stroke-width:0.345;stroke-linecap:butt;stroke-linejoin:miter;stroke-miterlimit:4;stroke-dasharray:none;stroke-opacity:1"
       id="path1521"
       inkscape:connector-curvature="0" /><path
       d="m 97.215558,783.17671 c 0.507,0 0.918,0.412 0.918,0.916 0,0.509 -0.411,0.919 -0.918,0.919 -0.506,0 -0.918,-0.41 -0.918,-0.919 0,-0.504 0.412,-0.916 0.918,-0.916"
       style="fill:#ffffff;fill-opacity:1;fill-rule:nonzero;stroke:none"
       id="path1523"
       inkscape:connector-curvature="0" /><path
       d="m 97.215558,783.17671 c 0.507,0 0.918,0.412 0.918,0.916 0,0.509 -0.411,0.919 -0.918,0.919 -0.506,0 -0.918,-0.41 -0.918,-0.919 0,-0.504 0.412,-0.916 0.918,-0.916 z"
       style="fill:none;stroke:#231f20;stroke-width:0.345;stroke-linecap:butt;stroke-linejoin:miter;stroke-miterlimit:4;stroke-dasharray:none;stroke-opacity:1"
       id="path1525"
       inkscape:connector-curvature="0" /><path
       d="m 97.215558,806.91571 c 0.507,0 0.918,0.412 0.918,0.917 0,0.509 -0.411,0.918 -0.918,0.918 -0.506,0 -0.918,-0.409 -0.918,-0.918 0,-0.505 0.412,-0.917 0.918,-0.917"
       style="fill:#ffffff;fill-opacity:1;fill-rule:nonzero;stroke:none"
       id="path1527"
       inkscape:connector-curvature="0" /><path
       d="m 97.215558,806.91571 c 0.507,0 0.918,0.412 0.918,0.917 0,0.509 -0.411,0.918 -0.918,0.918 -0.506,0 -0.918,-0.409 -0.918,-0.918 0,-0.505 0.412,-0.917 0.918,-0.917 z"
       style="fill:none;stroke:#231f20;stroke-width:0.345;stroke-linecap:butt;stroke-linejoin:miter;stroke-miterlimit:4;stroke-dasharray:none;stroke-opacity:1"
       id="path1529"
       inkscape:connector-curvature="0" /><path
       d="m 62.636558,807.80271 v -14.489"
       style="fill:none;stroke:#231f20;stroke-width:0.30000001;stroke-linecap:butt;stroke-linejoin:miter;stroke-miterlimit:4;stroke-dasharray:none;stroke-opacity:1"
       id="path1531"
       inkscape:connector-curvature="0" /><path
       d="m 58.110558,784.40271 h 1.0839 v 8.8467 h -1.0839 z"
       style="fill:#231f20;fill-opacity:1;fill-rule:nonzero;stroke:none"
       id="path1533"
       inkscape:connector-curvature="0" /><text
       transform="matrix(0,1,1,0,0,0)"
       style="font-variant:normal;font-weight:normal;font-size:6px;font-family:Arial;-inkscape-font-specification:ArialMT;writing-mode:lr-tb;fill:#231f20;fill-opacity:1;fill-rule:nonzero;stroke:none"
       id="text1537"
       x="764.5271"
       y="30.934856"><tspan
         x="764.5271 768.52911 771.86511 775.20111 778.20111 781.53711 783.5351 785.20306 788.20306 789.5351 791.53308 794.53308 797.86908 799.20111"
         y="30.934856"
         sodipodi:role="line"
         id="tspan1535">Sensor circuit</tspan></text>
<text
       transform="scale(1,-1)"
       style="font-variant:normal;font-weight:normal;font-size:6px;font-family:Arial;-inkscape-font-specification:ArialMT;writing-mode:lr-tb;fill:#231f20;fill-opacity:1;fill-rule:nonzero;stroke:none"
       id="text1549"
       x="98.90065"
       y="-810.2439"><tspan
         x="98.90065 100.89865 104.90065 106.89865 110.23465 114.56665 117.90265 119.90065 121.56865 125.07266"
         y="-810.2439"
         sodipodi:role="line"
         id="tspan1539">(Brown) +V</tspan><tspan
         x="211.39644"
         y="-785.17468"
         id="tspan1541">+</tspan><tspan
         x="211.48766"
         y="-776.51666"
         id="tspan1543">–</tspan><tspan
         x="234.20845"
         y="-775.03406"
         id="tspan1545">%</tspan><tspan
         x="223.90166"
         y="-777.9765"
         id="tspan1547">+</tspan></text>
<text
       transform="scale(1,-1)"
       style="font-variant:normal;font-weight:normal;font-size:5px;font-family:Arial;-inkscape-font-specification:ArialMT;writing-mode:lr-tb;fill:#231f20;fill-opacity:1;fill-rule:nonzero;stroke:none"
       id="text1553"
       x="227.40544"
       y="-777.97626"><tspan
         x="227.40544 230.18544"
         y="-777.97626"
         sodipodi:role="line"
         id="tspan1551">10</tspan></text>
<text
       transform="scale(1,-1)"
       style="font-variant:normal;font-weight:normal;font-size:6px;font-family:Arial;-inkscape-font-specification:ArialMT;writing-mode:lr-tb;fill:#231f20;fill-opacity:1;fill-rule:nonzero;stroke:none"
       id="text1557"
       x="224.20045"
       y="-772.66138"><tspan
         x="224.20045"
         y="-772.66138"
         id="tspan1555">–</tspan></text>
<text
       transform="scale(1,-1)"
       style="font-variant:normal;font-weight:normal;font-size:5px;font-family:Arial;-inkscape-font-specification:ArialMT;writing-mode:lr-tb;fill:#231f20;fill-opacity:1;fill-rule:nonzero;stroke:none"
       id="text1561"
       x="227.29744"
       y="-772.66138"><tspan
         x="227.29744 230.07845"
         y="-772.66138"
         sodipodi:role="line"
         id="tspan1559">15</tspan></text>
<text
       transform="scale(1,-1)"
       style="font-variant:normal;font-weight:normal;font-size:6px;font-family:Arial;-inkscape-font-specification:ArialMT;writing-mode:lr-tb;fill:#231f20;fill-opacity:1;fill-rule:nonzero;stroke:none"
       id="text1565"
       x="223.80147"
       y="-784.15308"><tspan
         x="223.80147 227.13747 230.47346 232.14146 233.80946 237.14546 238.81346 242.14946 245.48546 247.15346 251.15544 252.82344 257.15546"
         y="-784.15308"
         sodipodi:role="line"
         id="tspan1563">12 to 24 V DC</tspan></text>
</g></svg>